<svg id="svg" version="1.1" xmlns="http://www.w3.org/2000/svg" xmlns:xlink="http://www.w3.org/1999/xlink" width="400" height="449.7854077253219" viewBox="0, 0, 400,449.7854077253219"><g id="svgg"><path id="path1" d="M179.114 0.457 C 179.023 0.732,177.218 1.056,174.581 1.270 C 172.171 1.465,168.666 1.893,166.791 2.220 C 164.916 2.547,161.873 2.986,160.029 3.197 C 158.184 3.407,156.118 3.759,155.437 3.979 C 154.757 4.198,152.670 4.650,150.800 4.983 C 146.145 5.811,141.999 6.718,140.800 7.171 C 140.250 7.379,138.256 7.917,136.368 8.365 C 132.036 9.395,118.662 13.810,117.430 14.617 C 116.920 14.951,115.175 15.660,113.552 16.193 C 111.928 16.725,107.000 18.989,102.600 21.223 C 91.871 26.671,92.430 26.365,90.442 27.870 C 89.476 28.601,88.482 29.200,88.234 29.200 C 87.985 29.200,87.079 29.785,86.220 30.500 C 85.360 31.215,83.901 32.250,82.977 32.800 C 80.804 34.093,78.453 35.779,75.869 37.895 C 74.731 38.827,72.270 40.653,70.400 41.952 C 66.317 44.787,48.237 62.861,45.675 66.667 C 44.762 68.024,43.337 69.929,42.508 70.901 C 40.696 73.026,38.551 76.016,37.273 78.200 C 36.758 79.080,35.051 81.690,33.479 84.000 C 31.032 87.598,28.494 92.038,24.905 99.000 C 22.535 103.597,17.182 115.071,17.191 115.536 C 17.196 115.831,16.499 117.721,15.642 119.736 C 14.786 121.751,13.507 125.470,12.801 128.000 C 12.095 130.530,11.275 133.230,10.980 134.000 C 10.685 134.770,10.322 136.030,10.173 136.800 C 10.025 137.570,9.655 138.686,9.352 139.280 C 9.048 139.874,8.792 140.954,8.782 141.680 C 8.773 142.406,8.489 143.720,8.152 144.600 C 7.572 146.114,6.851 149.588,5.411 157.800 C 5.064 159.780,4.521 162.660,4.205 164.200 C 3.888 165.740,3.525 168.350,3.398 170.000 C 3.270 171.650,2.916 174.170,2.611 175.600 C 2.306 177.030,1.855 181.980,1.609 186.600 C 1.082 196.516,0.952 197.749,0.409 197.930 C -0.281 198.160,-0.138 223.411,0.560 224.514 C 0.932 225.102,1.209 227.286,1.381 231.000 C 1.633 236.423,2.668 247.063,2.994 247.591 C 3.083 247.734,3.339 249.639,3.564 251.825 C 4.963 265.417,12.401 295.108,16.435 303.200 C 17.038 304.410,17.742 306.198,18.001 307.173 C 18.596 309.422,29.601 331.462,30.911 333.028 C 31.450 333.673,32.013 334.590,32.162 335.067 C 32.311 335.544,32.831 336.434,33.316 337.045 C 34.308 338.292,36.372 341.484,37.555 343.600 C 37.985 344.370,39.339 346.170,40.563 347.600 C 41.787 349.030,42.795 350.380,42.802 350.600 C 42.831 351.469,52.168 362.105,58.225 368.169 C 63.151 373.102,71.431 380.188,75.878 383.278 C 77.241 384.225,80.278 386.395,82.627 388.100 C 84.975 389.805,87.118 391.200,87.387 391.200 C 87.657 391.200,89.372 392.200,91.198 393.423 C 95.131 396.055,112.060 404.572,114.132 404.961 C 114.926 405.110,117.019 405.945,118.784 406.816 C 120.548 407.687,122.275 408.400,122.622 408.400 C 122.968 408.400,124.095 408.732,125.126 409.137 C 128.085 410.300,131.155 411.257,134.400 412.028 C 136.050 412.421,139.020 413.207,141.000 413.776 C 142.980 414.345,145.950 415.055,147.600 415.354 C 149.250 415.653,151.059 416.083,151.620 416.309 C 152.180 416.534,153.890 416.843,155.420 416.993 C 156.949 417.144,158.830 417.441,159.600 417.654 C 167.236 419.761,206.267 421.333,218.727 420.036 C 220.857 419.814,224.670 419.436,227.200 419.195 C 229.730 418.955,232.880 418.593,234.200 418.392 C 238.930 417.670,246.236 416.413,248.200 415.983 C 249.300 415.742,251.100 415.393,252.200 415.206 C 255.629 414.625,259.346 413.711,264.304 412.229 C 266.932 411.443,269.453 410.800,269.905 410.800 C 270.808 410.800,276.400 416.818,276.400 417.789 C 276.400 418.098,277.106 419.167,277.970 420.165 C 278.833 421.162,279.669 422.388,279.827 422.889 C 279.985 423.390,280.867 424.700,281.788 425.800 C 282.709 426.900,283.881 428.496,284.393 429.347 C 284.904 430.197,286.015 431.693,286.862 432.671 C 287.708 433.649,288.400 434.707,288.400 435.023 C 288.400 435.339,289.005 436.273,289.745 437.099 C 290.486 437.924,291.402 439.208,291.782 439.950 C 292.161 440.693,293.221 442.233,294.136 443.374 C 295.051 444.515,296.340 446.379,297.000 447.516 L 298.200 449.584 342.100 449.592 C 376.962 449.598,385.998 449.497,385.991 449.100 C 385.972 448.004,384.323 445.052,382.085 442.105 C 380.788 440.397,379.492 438.550,379.206 438.000 C 378.919 437.450,378.081 436.324,377.342 435.499 C 376.604 434.673,376.000 433.724,376.000 433.390 C 376.000 433.056,375.305 432.021,374.457 431.091 C 373.608 430.161,372.420 428.611,371.818 427.647 C 371.216 426.684,369.931 424.922,368.962 423.732 C 367.993 422.542,367.200 421.338,367.200 421.056 C 367.200 420.775,366.596 419.837,365.857 418.972 C 365.119 418.107,364.142 416.668,363.686 415.773 C 363.231 414.879,362.546 413.889,362.163 413.573 C 361.781 413.258,360.839 412.010,360.072 410.800 C 359.304 409.590,358.056 407.905,357.299 407.056 C 356.542 406.207,355.670 404.908,355.362 404.171 C 355.054 403.433,354.286 402.238,353.656 401.515 C 353.026 400.792,352.190 399.570,351.797 398.800 C 351.405 398.030,350.287 396.511,349.313 395.425 C 348.340 394.339,347.266 392.899,346.927 392.225 C 346.588 391.551,345.800 390.460,345.175 389.800 C 344.551 389.140,343.777 387.968,343.455 387.196 C 343.133 386.423,342.168 384.983,341.311 383.996 C 340.455 383.008,339.317 381.480,338.784 380.600 C 338.250 379.720,337.203 378.323,336.457 377.496 C 334.165 374.956,334.257 374.784,342.250 366.664 C 352.944 355.798,363.136 342.816,367.265 334.800 C 367.888 333.590,369.202 331.340,370.186 329.800 C 372.753 325.778,379.304 312.694,380.400 309.400 C 380.912 307.860,381.751 305.808,382.265 304.840 C 382.779 303.873,383.200 302.672,383.200 302.173 C 383.200 301.674,383.830 299.951,384.600 298.344 C 385.370 296.737,386.000 295.094,386.000 294.691 C 386.000 294.289,386.263 293.453,386.583 292.832 C 386.904 292.212,387.454 290.376,387.804 288.752 C 388.154 287.128,388.631 285.350,388.864 284.800 C 389.519 283.250,392.782 270.199,393.465 266.400 C 397.642 243.138,399.171 222.523,398.382 200.139 C 397.982 188.787,397.719 185.154,396.606 175.600 C 396.260 172.630,395.874 169.210,395.748 168.000 C 395.622 166.790,394.997 163.128,394.359 159.863 C 393.722 156.598,393.200 153.519,393.200 153.022 C 393.200 151.127,388.284 132.713,386.970 129.686 C 386.657 128.964,386.400 128.031,386.400 127.613 C 386.400 127.195,385.665 124.906,384.766 122.527 C 383.867 120.147,382.622 116.760,381.998 115.000 C 381.375 113.240,378.312 106.760,375.192 100.600 C 368.106 86.610,368.497 87.334,366.921 85.269 C 366.194 84.318,365.600 83.315,365.600 83.041 C 365.600 82.768,364.996 81.837,364.259 80.972 C 363.521 80.107,362.602 78.787,362.217 78.038 C 361.831 77.289,360.544 75.532,359.358 74.133 C 358.171 72.734,357.200 71.413,357.200 71.197 C 357.200 70.982,355.978 69.409,354.484 67.703 C 352.990 65.996,350.572 63.070,349.112 61.200 C 345.564 56.658,338.505 49.784,332.510 45.033 C 329.821 42.901,327.508 40.975,327.371 40.753 C 326.764 39.771,314.366 31.011,311.550 29.575 C 310.658 29.119,309.089 28.145,308.064 27.410 C 305.649 25.677,285.828 15.784,284.000 15.399 C 283.230 15.236,282.105 14.851,281.500 14.542 C 280.554 14.058,278.194 13.147,273.000 11.261 C 272.340 11.021,270.090 10.351,268.000 9.772 C 265.910 9.193,263.300 8.443,262.200 8.106 C 259.071 7.147,254.152 5.984,249.991 5.221 C 247.896 4.837,245.556 4.327,244.791 4.088 C 244.026 3.850,241.870 3.539,240.000 3.398 C 238.130 3.256,235.610 2.892,234.400 2.587 C 231.820 1.938,225.384 1.200,222.308 1.200 C 221.032 1.200,219.836 0.960,219.376 0.613 C 218.359 -0.156,179.369 -0.307,179.114 0.457 M207.400 81.203 C 214.510 81.711,222.863 83.188,227.800 84.811 C 229.120 85.245,230.470 85.606,230.800 85.613 C 231.130 85.619,232.300 86.068,233.400 86.609 C 234.500 87.150,235.740 87.594,236.155 87.596 C 236.958 87.600,242.861 90.351,245.200 91.811 C 249.328 94.388,252.923 96.781,255.600 98.735 C 259.789 101.792,271.837 113.753,272.990 116.000 C 273.498 116.990,274.298 118.147,274.768 118.572 C 276.085 119.763,282.400 129.602,282.400 130.465 C 282.400 130.691,282.736 131.354,283.148 131.938 C 283.559 132.522,284.030 133.450,284.195 134.000 C 284.360 134.550,284.722 135.270,285.000 135.600 C 285.278 135.930,285.643 136.650,285.810 137.200 C 285.978 137.750,286.387 138.615,286.718 139.122 C 287.346 140.082,288.826 143.951,289.885 147.400 C 290.223 148.500,290.648 149.587,290.829 149.816 C 291.419 150.560,293.471 157.299,294.357 161.400 C 294.832 163.600,295.562 166.750,295.979 168.400 C 296.819 171.724,297.851 178.372,299.178 189.000 C 300.582 200.245,299.616 238.262,297.854 241.113 C 297.707 241.351,297.416 243.313,297.208 245.473 C 297.000 247.633,296.553 250.210,296.215 251.200 C 295.878 252.190,295.343 254.350,295.026 256.000 C 293.462 264.157,293.192 265.327,292.761 265.847 C 292.505 266.155,291.972 267.531,291.575 268.904 C 290.104 273.993,288.240 278.403,284.272 286.182 C 280.126 294.309,279.118 295.660,278.259 294.244 C 278.006 293.828,277.125 292.692,276.300 291.720 C 275.475 290.747,274.800 289.813,274.800 289.645 C 274.800 289.477,273.540 287.656,272.000 285.600 C 270.460 283.544,269.200 281.723,269.200 281.555 C 269.200 281.387,268.480 280.417,267.600 279.400 C 266.720 278.383,266.000 277.288,266.000 276.967 C 266.000 276.645,265.319 275.621,264.487 274.691 C 263.655 273.761,262.307 271.970,261.491 270.712 C 258.834 266.614,263.676 267.015,215.418 266.887 C 166.480 266.758,169.385 266.557,172.141 269.869 C 172.658 270.491,173.583 271.810,174.197 272.800 C 174.811 273.790,176.008 275.361,176.857 276.291 C 177.705 277.221,178.400 278.239,178.400 278.553 C 178.400 278.867,179.044 279.895,179.832 280.838 C 180.619 281.780,181.680 283.372,182.188 284.376 C 182.697 285.379,183.491 286.541,183.952 286.958 C 184.413 287.375,185.368 288.635,186.073 289.758 C 186.779 290.881,188.020 292.539,188.832 293.442 C 189.645 294.345,190.443 295.515,190.608 296.042 C 190.772 296.569,191.512 297.676,192.253 298.501 C 192.994 299.327,193.600 300.151,193.600 300.332 C 193.600 300.513,194.815 302.311,196.300 304.327 C 200.818 310.460,201.363 311.234,202.400 312.989 C 202.950 313.920,203.948 315.303,204.619 316.062 C 205.289 316.822,206.267 318.153,206.791 319.022 C 207.316 319.890,208.336 321.269,209.059 322.086 C 209.781 322.903,210.814 324.444,211.355 325.511 C 211.895 326.577,212.635 327.697,212.998 327.998 C 213.361 328.300,214.031 329.279,214.486 330.173 C 214.942 331.068,216.012 332.595,216.866 333.567 C 219.893 337.012,219.278 338.369,214.300 339.228 C 210.491 339.885,186.819 339.874,184.800 339.214 C 184.030 338.963,181.600 338.426,179.400 338.022 C 174.111 337.051,169.770 335.873,166.703 334.576 C 165.326 333.994,163.376 333.284,162.369 332.999 C 160.025 332.336,155.908 330.271,153.600 328.600 C 152.610 327.884,150.682 326.737,149.316 326.051 C 147.950 325.366,144.980 323.270,142.716 321.394 C 140.452 319.518,137.746 317.283,136.701 316.427 C 135.657 315.571,133.857 313.757,132.701 312.395 C 131.546 311.033,129.187 308.272,127.459 306.259 C 125.732 304.247,123.901 301.779,123.391 300.775 C 122.880 299.771,122.164 298.702,121.800 298.400 C 121.436 298.098,120.705 296.997,120.176 295.953 C 119.648 294.910,119.051 293.955,118.851 293.831 C 118.457 293.588,113.125 282.801,111.619 279.200 C 108.989 272.913,106.325 264.847,104.983 259.110 C 104.403 256.630,103.565 253.070,103.120 251.200 C 102.675 249.330,102.158 246.630,101.971 245.200 C 101.785 243.770,101.350 240.440,101.006 237.800 C 99.522 226.434,98.989 203.467,99.961 192.800 C 101.201 179.181,101.892 174.286,103.431 168.200 C 103.765 166.880,104.204 164.900,104.407 163.800 C 105.131 159.880,106.922 153.377,107.655 152.006 C 108.065 151.239,108.400 150.244,108.400 149.795 C 108.400 149.345,109.030 147.663,109.800 146.056 C 110.570 144.449,111.200 142.807,111.200 142.407 C 111.200 140.894,118.023 128.016,121.778 122.441 C 125.694 116.627,127.195 114.683,131.200 110.234 C 132.410 108.891,133.850 107.204,134.400 106.486 C 134.950 105.768,136.265 104.620,137.321 103.935 C 138.378 103.250,140.749 101.313,142.591 99.631 C 144.701 97.704,147.046 96.018,148.931 95.074 C 150.576 94.250,152.156 93.294,152.442 92.950 C 152.727 92.606,153.870 91.865,154.980 91.304 C 156.091 90.743,157.810 89.865,158.800 89.354 C 159.790 88.843,160.926 88.419,161.324 88.413 C 161.722 88.406,163.523 87.696,165.326 86.835 C 167.130 85.974,169.774 84.997,171.203 84.664 C 172.631 84.331,175.150 83.742,176.800 83.357 C 185.728 81.272,197.127 80.470,207.400 81.203 " stroke="none" fill="#2454c4" fill-rule="evenodd"></path></g></svg>